# 3ds Max Wavefront OBJ Exporter v0.97b - (c)2007 guruware
# File Created: 23.05.2013 21:33:57

mtllib ground.mtl

#
# object Plane001
#

v  -86.8943 0.0000 -87.9553
v  -86.8943 0.0000 85.7094
v  89.6761 0.0000 -87.9553
v  89.6761 0.0000 85.7094
# 4 vertices

vn 0.0000 1.0000 -0.0000
# 1 vertex normals

vt 0.0000 173.6647 0.0000
vt 0.0000 0.0000 0.0000
vt 176.5705 173.6647 0.0000
vt 176.5705 0.0000 0.0000
# 4 texture coords

g Plane001
usemtl wire_153228184
s 1
f 1/1/1 2/2/1 3/3/1 
f 4/4/1 3/3/1 2/2/1 
# 2 faces

